<svg width="20" height="20" viewBox="0 0 20 20" fill="none" xmlns="http://www.w3.org/2000/svg">
<path d="M7.23592 11.1181C7.40425 10.7815 7.49925 10.4015 7.49925 9.99981C7.49925 9.59814 7.40425 9.21814 7.23592 8.88148M7.23592 11.1181C6.984 11.6218 6.56942 12.0257 6.05933 12.2643C5.54924 12.5029 4.97353 12.5623 4.42545 12.4329C3.87738 12.3035 3.38906 11.9928 3.0396 11.5512C2.69013 11.1096 2.5 10.563 2.5 9.99981C2.5 9.43667 2.69013 8.89002 3.0396 8.44842C3.38906 8.00682 3.87738 7.69615 4.42545 7.56673C4.97353 7.43731 5.54924 7.49672 6.05933 7.73534C6.56942 7.97397 6.984 8.37782 7.23592 8.88148M7.23592 11.1181L12.7626 13.8815M7.23592 8.88148L12.7626 6.11814M12.7626 13.8815C12.466 14.4747 12.4172 15.1614 12.6269 15.7906C12.8366 16.4198 13.2877 16.9399 13.8809 17.2365C14.4741 17.5331 15.1608 17.5819 15.79 17.3722C16.4192 17.1624 16.9393 16.7113 17.2359 16.1181C17.5325 15.5249 17.5813 14.8382 17.3716 14.209C17.1619 13.5798 16.7108 13.0597 16.1176 12.7631C15.8239 12.6163 15.5041 12.5287 15.1765 12.5054C14.849 12.4822 14.52 12.5236 14.2085 12.6275C13.5793 12.8372 13.0592 13.2883 12.7626 13.8815ZM12.7626 6.11814C12.9094 6.41181 13.1127 6.67368 13.3608 6.88879C13.6088 7.1039 13.8968 7.26805 14.2083 7.37186C14.5199 7.47567 14.8487 7.5171 15.1763 7.4938C15.5038 7.4705 15.8235 7.38292 16.1172 7.23606C16.4108 7.0892 16.6727 6.88593 16.8878 6.63787C17.1029 6.3898 17.2671 6.1018 17.3709 5.7903C17.4747 5.4788 17.5161 5.1499 17.4928 4.82238C17.4695 4.49487 17.3819 4.17515 17.2351 3.88148C16.9385 3.28839 16.4184 2.83741 15.7893 2.62776C15.1602 2.41811 14.4736 2.46696 13.8805 2.76356C13.2874 3.06016 12.8364 3.58022 12.6268 4.20932C12.4171 4.83843 12.466 5.52505 12.7626 6.11814Z" stroke="#E74FB1" stroke-width="1.5" stroke-linecap="round" stroke-linejoin="round"/>
</svg>
