<svg width="21" height="20" viewBox="0 0 21 20" fill="none" xmlns="http://www.w3.org/2000/svg">
<mask id="path-1-inside-1_2339_4677" fill="white">
<path d="M4.76953 6.92275C4.76953 6.78674 4.82989 6.65631 4.93733 6.56013C5.04478 6.46396 5.1905 6.40993 5.34245 6.40993H13.3633C13.5152 6.40993 13.661 6.46396 13.7684 6.56013C13.8758 6.65631 13.9362 6.78674 13.9362 6.92275C13.9362 7.05876 13.8758 7.1892 13.7684 7.28537C13.661 7.38154 13.5152 7.43557 13.3633 7.43557H5.34245C5.1905 7.43557 5.04478 7.38154 4.93733 7.28537C4.82989 7.1892 4.76953 7.05876 4.76953 6.92275ZM11.0716 9.48685C10.9197 9.48685 10.7739 9.54088 10.6665 9.63706C10.5591 9.73323 10.4987 9.86367 10.4987 9.99967C10.4987 10.1357 10.5591 10.2661 10.6665 10.3623C10.7739 10.4585 10.9197 10.5125 11.0716 10.5125H13.3633C13.5152 10.5125 13.661 10.4585 13.7684 10.3623C13.8758 10.2661 13.9362 10.1357 13.9362 9.99967C13.9362 9.86367 13.8758 9.73323 13.7684 9.63706C13.661 9.54088 13.5152 9.48685 13.3633 9.48685H11.0716ZM10.4987 13.0766C10.4987 12.9406 10.5591 12.8102 10.6665 12.714C10.7739 12.6178 10.9197 12.5638 11.0716 12.5638H13.3633C13.5152 12.5638 13.661 12.6178 13.7684 12.714C13.8758 12.8102 13.9362 12.9406 13.9362 13.0766C13.9362 13.2126 13.8758 13.343 13.7684 13.4392C13.661 13.5354 13.5152 13.5894 13.3633 13.5894H11.0716C10.9197 13.5894 10.7739 13.5354 10.6665 13.4392C10.5591 13.343 10.4987 13.2126 10.4987 13.0766ZM5.34245 9.48685C5.1905 9.48685 5.04478 9.54088 4.93733 9.63706C4.82989 9.73323 4.76953 9.86367 4.76953 9.99967V13.0766C4.76953 13.2126 4.82989 13.343 4.93733 13.4392C5.04478 13.5354 5.1905 13.5894 5.34245 13.5894H8.77995C8.93189 13.5894 9.07762 13.5354 9.18506 13.4392C9.2925 13.343 9.35286 13.2126 9.35286 13.0766V9.99967C9.35286 9.86367 9.2925 9.73323 9.18506 9.63706C9.07762 9.54088 8.93189 9.48685 8.77995 9.48685H5.34245ZM5.91536 12.5638V10.5125H8.20703V12.5638H5.91536ZM1.33203 5.38429C1.33203 4.84026 1.57347 4.3185 2.00324 3.93381C2.43302 3.54912 3.01591 3.33301 3.6237 3.33301H15.082C15.6898 3.33301 16.2727 3.54912 16.7025 3.93381C17.1323 4.3185 17.3737 4.84026 17.3737 5.38429V6.40993C17.9815 6.40993 18.5644 6.62605 18.9942 7.01074C19.4239 7.39543 19.6654 7.91718 19.6654 8.46121V14.1022C19.6654 14.7823 19.3636 15.4345 18.8263 15.9153C18.2891 16.3962 17.5605 16.6663 16.8008 16.6663H4.19661C3.43688 16.6663 2.70826 16.3962 2.17105 15.9153C1.63383 15.4345 1.33203 14.7823 1.33203 14.1022V5.38429ZM16.2279 5.38429C16.2279 5.11227 16.1071 4.8514 15.8923 4.65905C15.6774 4.46671 15.3859 4.35865 15.082 4.35865H3.6237C3.3198 4.35865 3.02836 4.46671 2.81347 4.65905C2.59859 4.8514 2.47786 5.11227 2.47786 5.38429V14.1022C2.47786 14.5103 2.65895 14.9016 2.98127 15.1901C3.3036 15.4786 3.74077 15.6407 4.19661 15.6407H16.8008C17.2566 15.6407 17.6938 15.4786 18.0161 15.1901C18.3384 14.9016 18.5195 14.5103 18.5195 14.1022V8.46121C18.5195 8.1892 18.3988 7.92832 18.1839 7.73598C17.969 7.54363 17.6776 7.43557 17.3737 7.43557V14.1022C17.3737 14.2382 17.3133 14.3687 17.2059 14.4649C17.0984 14.561 16.9527 14.6151 16.8008 14.6151C16.6488 14.6151 16.5031 14.561 16.3957 14.4649C16.2882 14.3687 16.2279 14.2382 16.2279 14.1022V5.38429Z"/>
</mask>
<path d="M4.76953 6.92275C4.76953 6.78674 4.82989 6.65631 4.93733 6.56013C5.04478 6.46396 5.1905 6.40993 5.34245 6.40993H13.3633C13.5152 6.40993 13.661 6.46396 13.7684 6.56013C13.8758 6.65631 13.9362 6.78674 13.9362 6.92275C13.9362 7.05876 13.8758 7.1892 13.7684 7.28537C13.661 7.38154 13.5152 7.43557 13.3633 7.43557H5.34245C5.1905 7.43557 5.04478 7.38154 4.93733 7.28537C4.82989 7.1892 4.76953 7.05876 4.76953 6.92275ZM11.0716 9.48685C10.9197 9.48685 10.7739 9.54088 10.6665 9.63706C10.5591 9.73323 10.4987 9.86367 10.4987 9.99967C10.4987 10.1357 10.5591 10.2661 10.6665 10.3623C10.7739 10.4585 10.9197 10.5125 11.0716 10.5125H13.3633C13.5152 10.5125 13.661 10.4585 13.7684 10.3623C13.8758 10.2661 13.9362 10.1357 13.9362 9.99967C13.9362 9.86367 13.8758 9.73323 13.7684 9.63706C13.661 9.54088 13.5152 9.48685 13.3633 9.48685H11.0716ZM10.4987 13.0766C10.4987 12.9406 10.5591 12.8102 10.6665 12.714C10.7739 12.6178 10.9197 12.5638 11.0716 12.5638H13.3633C13.5152 12.5638 13.661 12.6178 13.7684 12.714C13.8758 12.8102 13.9362 12.9406 13.9362 13.0766C13.9362 13.2126 13.8758 13.343 13.7684 13.4392C13.661 13.5354 13.5152 13.5894 13.3633 13.5894H11.0716C10.9197 13.5894 10.7739 13.5354 10.6665 13.4392C10.5591 13.343 10.4987 13.2126 10.4987 13.0766ZM5.34245 9.48685C5.1905 9.48685 5.04478 9.54088 4.93733 9.63706C4.82989 9.73323 4.76953 9.86367 4.76953 9.99967V13.0766C4.76953 13.2126 4.82989 13.343 4.93733 13.4392C5.04478 13.5354 5.1905 13.5894 5.34245 13.5894H8.77995C8.93189 13.5894 9.07762 13.5354 9.18506 13.4392C9.2925 13.343 9.35286 13.2126 9.35286 13.0766V9.99967C9.35286 9.86367 9.2925 9.73323 9.18506 9.63706C9.07762 9.54088 8.93189 9.48685 8.77995 9.48685H5.34245ZM5.91536 12.5638V10.5125H8.20703V12.5638H5.91536ZM1.33203 5.38429C1.33203 4.84026 1.57347 4.3185 2.00324 3.93381C2.43302 3.54912 3.01591 3.33301 3.6237 3.33301H15.082C15.6898 3.33301 16.2727 3.54912 16.7025 3.93381C17.1323 4.3185 17.3737 4.84026 17.3737 5.38429V6.40993C17.9815 6.40993 18.5644 6.62605 18.9942 7.01074C19.4239 7.39543 19.6654 7.91718 19.6654 8.46121V14.1022C19.6654 14.7823 19.3636 15.4345 18.8263 15.9153C18.2891 16.3962 17.5605 16.6663 16.8008 16.6663H4.19661C3.43688 16.6663 2.70826 16.3962 2.17105 15.9153C1.63383 15.4345 1.33203 14.7823 1.33203 14.1022V5.38429ZM16.2279 5.38429C16.2279 5.11227 16.1071 4.8514 15.8923 4.65905C15.6774 4.46671 15.3859 4.35865 15.082 4.35865H3.6237C3.3198 4.35865 3.02836 4.46671 2.81347 4.65905C2.59859 4.8514 2.47786 5.11227 2.47786 5.38429V14.1022C2.47786 14.5103 2.65895 14.9016 2.98127 15.1901C3.3036 15.4786 3.74077 15.6407 4.19661 15.6407H16.8008C17.2566 15.6407 17.6938 15.4786 18.0161 15.1901C18.3384 14.9016 18.5195 14.5103 18.5195 14.1022V8.46121C18.5195 8.1892 18.3988 7.92832 18.1839 7.73598C17.969 7.54363 17.6776 7.43557 17.3737 7.43557V14.1022C17.3737 14.2382 17.3133 14.3687 17.2059 14.4649C17.0984 14.561 16.9527 14.6151 16.8008 14.6151C16.6488 14.6151 16.5031 14.561 16.3957 14.4649C16.2882 14.3687 16.2279 14.2382 16.2279 14.1022V5.38429Z" fill="#ADAFB3"/>
<path d="M5.91536 12.5638H4.41536V14.0638H5.91536V12.5638ZM5.91536 10.5125V9.0125H4.41536V10.5125H5.91536ZM8.20703 10.5125H9.70703V9.0125H8.20703V10.5125ZM8.20703 12.5638V14.0638H9.70703V12.5638H8.20703ZM3.6237 3.33301V1.83301V3.33301ZM17.3737 6.40993H15.8737V7.90993H17.3737V6.40993ZM15.082 4.35865V2.85865V4.35865ZM2.47786 5.38429H0.977864H2.47786ZM4.19661 15.6407V17.1407V15.6407ZM16.8008 15.6407V17.1407V15.6407ZM17.3737 7.43557V5.93557H15.8737V7.43557H17.3737ZM6.26953 6.92275C6.26953 7.24159 6.12658 7.50878 5.93776 7.67779L3.93691 5.44248C3.53321 5.80383 3.26953 6.3319 3.26953 6.92275H6.26953ZM5.93776 7.67779C5.75439 7.84192 5.53797 7.90993 5.34245 7.90993V4.90993C4.84303 4.90993 4.33516 5.086 3.93691 5.44248L5.93776 7.67779ZM5.34245 7.90993H13.3633V4.90993H5.34245V7.90993ZM13.3633 7.90993C13.1678 7.90993 12.9513 7.84192 12.768 7.67779L14.7688 5.44248C14.3706 5.086 13.8627 4.90993 13.3633 4.90993V7.90993ZM12.768 7.67779C12.5792 7.50877 12.4362 7.24159 12.4362 6.92275H15.4362C15.4362 6.3319 15.1725 5.80384 14.7688 5.44248L12.768 7.67779ZM12.4362 6.92275C12.4362 6.60392 12.5792 6.33673 12.768 6.16771L14.7688 8.40303C15.1725 8.04167 15.4362 7.5136 15.4362 6.92275H12.4362ZM12.768 6.16771C12.9513 6.00358 13.1678 5.93557 13.3633 5.93557V8.93557C13.8627 8.93557 14.3706 8.75951 14.7688 8.40303L12.768 6.16771ZM13.3633 5.93557H5.34245V8.93557H13.3633V5.93557ZM5.34245 5.93557C5.53797 5.93557 5.75439 6.00358 5.93776 6.16771L3.93691 8.40303C4.33517 8.75951 4.84303 8.93557 5.34245 8.93557V5.93557ZM5.93776 6.16771C6.12657 6.33673 6.26953 6.60391 6.26953 6.92275H3.26953C3.26953 7.51361 3.53321 8.04167 3.93691 8.40303L5.93776 6.16771ZM11.0716 7.98685C10.5722 7.98685 10.0643 8.16292 9.66608 8.5194L11.6669 10.7547C11.4836 10.9188 11.2671 10.9869 11.0716 10.9869V7.98685ZM9.66608 8.5194C9.26237 8.88076 8.9987 9.40882 8.9987 9.99967H11.9987C11.9987 10.3185 11.8557 10.5857 11.6669 10.7547L9.66608 8.5194ZM8.9987 9.99967C8.9987 10.5905 9.26237 11.1186 9.66608 11.48L11.6669 9.24464C11.8557 9.41365 11.9987 9.68084 11.9987 9.99967H8.9987ZM9.66608 11.48C10.0643 11.8364 10.5722 12.0125 11.0716 12.0125V9.0125C11.2671 9.0125 11.4836 9.0805 11.6669 9.24464L9.66608 11.48ZM11.0716 12.0125H13.3633V9.0125H11.0716V12.0125ZM13.3633 12.0125C13.8627 12.0125 14.3706 11.8364 14.7688 11.48L12.768 9.24464C12.9513 9.0805 13.1678 9.0125 13.3633 9.0125V12.0125ZM14.7688 11.48C15.1725 11.1186 15.4362 10.5905 15.4362 9.99967H12.4362C12.4362 9.68084 12.5791 9.41365 12.768 9.24464L14.7688 11.48ZM15.4362 9.99967C15.4362 9.40882 15.1725 8.88076 14.7688 8.5194L12.768 10.7547C12.5792 10.5857 12.4362 10.3185 12.4362 9.99967H15.4362ZM14.7688 8.5194C14.3706 8.16292 13.8627 7.98685 13.3633 7.98685V10.9869C13.1678 10.9869 12.9513 10.9188 12.768 10.7547L14.7688 8.5194ZM13.3633 7.98685H11.0716V10.9869H13.3633V7.98685ZM11.9987 13.0766C11.9987 13.3954 11.8557 13.6626 11.6669 13.8316L9.66608 11.5963C9.26237 11.9577 8.9987 12.4857 8.9987 13.0766H11.9987ZM11.6669 13.8316C11.4836 13.9958 11.2671 14.0638 11.0716 14.0638V11.0638C10.5722 11.0638 10.0643 11.2398 9.66608 11.5963L11.6669 13.8316ZM11.0716 14.0638H13.3633V11.0638H11.0716V14.0638ZM13.3633 14.0638C13.1678 14.0638 12.9513 13.9958 12.768 13.8316L14.7688 11.5963C14.3706 11.2398 13.8627 11.0638 13.3633 11.0638V14.0638ZM12.768 13.8316C12.5791 13.6626 12.4362 13.3954 12.4362 13.0766H15.4362C15.4362 12.4857 15.1725 11.9577 14.7688 11.5963L12.768 13.8316ZM12.4362 13.0766C12.4362 12.7578 12.5792 12.4906 12.768 12.3216L14.7688 14.5569C15.1725 14.1955 15.4362 13.6674 15.4362 13.0766H12.4362ZM12.768 12.3216C12.9513 12.1574 13.1678 12.0894 13.3633 12.0894V15.0894C13.8627 15.0894 14.3706 14.9134 14.7688 14.5569L12.768 12.3216ZM13.3633 12.0894H11.0716V15.0894H13.3633V12.0894ZM11.0716 12.0894C11.2671 12.0894 11.4836 12.1574 11.6669 12.3216L9.66608 14.5569C10.0643 14.9134 10.5722 15.0894 11.0716 15.0894V12.0894ZM11.6669 12.3216C11.8557 12.4906 11.9987 12.7578 11.9987 13.0766H8.9987C8.9987 13.6674 9.26237 14.1955 9.66608 14.5569L11.6669 12.3216ZM5.34245 7.98685C4.84303 7.98685 4.33517 8.16292 3.93691 8.5194L5.93776 10.7547C5.75439 10.9188 5.53797 10.9869 5.34245 10.9869V7.98685ZM3.93691 8.5194C3.53321 8.88076 3.26953 9.40882 3.26953 9.99967H6.26953C6.26953 10.3185 6.12658 10.5857 5.93776 10.7547L3.93691 8.5194ZM3.26953 9.99967V13.0766H6.26953V9.99967H3.26953ZM3.26953 13.0766C3.26953 13.6675 3.53321 14.1955 3.93691 14.5569L5.93776 12.3216C6.12657 12.4906 6.26953 12.7578 6.26953 13.0766H3.26953ZM3.93691 14.5569C4.33517 14.9134 4.84303 15.0894 5.34245 15.0894V12.0894C5.53797 12.0894 5.75439 12.1574 5.93776 12.3216L3.93691 14.5569ZM5.34245 15.0894H8.77995V12.0894H5.34245V15.0894ZM8.77995 15.0894C9.27936 15.0894 9.78723 14.9134 10.1855 14.5569L8.18464 12.3216C8.36801 12.1574 8.58443 12.0894 8.77995 12.0894V15.0894ZM10.1855 14.5569C10.5892 14.1955 10.8529 13.6674 10.8529 13.0766H7.85286C7.85286 12.7578 7.99582 12.4906 8.18464 12.3216L10.1855 14.5569ZM10.8529 13.0766V9.99967H7.85286V13.0766H10.8529ZM10.8529 9.99967C10.8529 9.40882 10.5892 8.88076 10.1855 8.5194L8.18464 10.7547C7.99582 10.5857 7.85286 10.3185 7.85286 9.99967H10.8529ZM10.1855 8.5194C9.78723 8.16292 9.27936 7.98685 8.77995 7.98685V10.9869C8.58443 10.9869 8.36801 10.9188 8.18464 10.7547L10.1855 8.5194ZM8.77995 7.98685H5.34245V10.9869H8.77995V7.98685ZM7.41536 12.5638V10.5125H4.41536V12.5638H7.41536ZM5.91536 12.0125H8.20703V9.0125H5.91536V12.0125ZM6.70703 10.5125V12.5638H9.70703V10.5125H6.70703ZM8.20703 11.0638H5.91536V14.0638H8.20703V11.0638ZM2.83203 5.38429C2.83203 5.2951 2.87016 5.17098 3.00367 5.05147L1.00282 2.81616C0.276791 3.46603 -0.167969 4.38541 -0.167969 5.38429H2.83203ZM3.00367 5.05147C3.14263 4.92709 3.36338 4.83301 3.6237 4.83301V1.83301C2.66844 1.83301 1.7234 2.17116 1.00282 2.81616L3.00367 5.05147ZM3.6237 4.83301H15.082V1.83301H3.6237V4.83301ZM15.082 4.83301C15.3423 4.83301 15.5631 4.92709 15.7021 5.05147L17.7029 2.81616C16.9823 2.17116 16.0373 1.83301 15.082 1.83301V4.83301ZM15.7021 5.05147C15.8356 5.17098 15.8737 5.2951 15.8737 5.38429H18.8737C18.8737 4.38541 18.4289 3.46603 17.7029 2.81616L15.7021 5.05147ZM15.8737 5.38429V6.40993H18.8737V5.38429H15.8737ZM17.3737 7.90993C17.634 7.90993 17.8548 8.00401 17.9937 8.12839L19.9946 5.89308C19.274 5.24809 18.329 4.90993 17.3737 4.90993V7.90993ZM17.9937 8.12839C18.1272 8.2479 18.1654 8.37202 18.1654 8.46121H21.1654C21.1654 7.46233 20.7206 6.54296 19.9946 5.89308L17.9937 8.12839ZM18.1654 8.46121V14.1022H21.1654V8.46121H18.1654ZM18.1654 14.1022C18.1654 14.3274 18.0669 14.582 17.8259 14.7977L19.8268 17.033C20.6602 16.2869 21.1654 15.2371 21.1654 14.1022H18.1654ZM17.8259 14.7977C17.5795 15.0182 17.213 15.1663 16.8008 15.1663V18.1663C17.908 18.1663 18.9987 17.7742 19.8268 17.033L17.8259 14.7977ZM16.8008 15.1663H4.19661V18.1663H16.8008V15.1663ZM4.19661 15.1663C3.78435 15.1663 3.41787 15.0182 3.17147 14.7977L1.17063 17.033C1.99865 17.7742 3.08941 18.1663 4.19661 18.1663V15.1663ZM3.17147 14.7977C2.93052 14.582 2.83203 14.3274 2.83203 14.1022H-0.167969C-0.167969 15.2371 0.337152 16.2869 1.17063 17.033L3.17147 14.7977ZM2.83203 14.1022V5.38429H-0.167969V14.1022H2.83203ZM17.7279 5.38429C17.7279 4.65742 17.4038 3.99892 16.8927 3.54139L14.8918 5.77671C14.8105 5.70387 14.7279 5.56712 14.7279 5.38429H17.7279ZM16.8927 3.54139C16.387 3.08875 15.7334 2.85865 15.082 2.85865V5.85865C15.0385 5.85865 14.9678 5.84467 14.8918 5.77671L16.8927 3.54139ZM15.082 2.85865H3.6237V5.85865H15.082V2.85865ZM3.6237 2.85865C2.97233 2.85865 2.31874 3.08875 1.81305 3.54139L3.81389 5.77671C3.73797 5.84467 3.66728 5.85865 3.6237 5.85865V2.85865ZM1.81305 3.54139C1.3019 3.99893 0.977864 4.65743 0.977864 5.38429H3.97786C3.97786 5.56712 3.89527 5.70387 3.81389 5.77671L1.81305 3.54139ZM0.977864 5.38429V14.1022H3.97786V5.38429H0.977864ZM0.977864 14.1022C0.977864 14.9651 1.36226 15.754 1.98085 16.3078L3.9817 14.0724C3.96786 14.0601 3.96701 14.0546 3.97001 14.061C3.97142 14.0641 3.97347 14.0694 3.97514 14.0769C3.97682 14.0844 3.97786 14.093 3.97786 14.1022H0.977864ZM1.98085 16.3078C2.59399 16.8566 3.3933 17.1407 4.19661 17.1407V14.1407C4.08824 14.1407 4.01322 14.1007 3.9817 14.0724L1.98085 16.3078ZM4.19661 17.1407H16.8008V14.1407H4.19661V17.1407ZM16.8008 17.1407C17.6041 17.1407 18.4034 16.8566 19.0165 16.3078L17.0157 14.0724C16.9842 14.1007 16.9091 14.1407 16.8008 14.1407V17.1407ZM19.0165 16.3078C19.6351 15.754 20.0195 14.9651 20.0195 14.1022H17.0195C17.0195 14.093 17.0206 14.0844 17.0223 14.0769C17.0239 14.0694 17.026 14.0641 17.0274 14.061C17.0304 14.0546 17.0295 14.0601 17.0157 14.0724L19.0165 16.3078ZM20.0195 14.1022V8.46121H17.0195V14.1022H20.0195ZM20.0195 8.46121C20.0195 7.73435 19.6955 7.07585 19.1843 6.61832L17.1835 8.85363C17.1021 8.78079 17.0195 8.64404 17.0195 8.46121H20.0195ZM19.1843 6.61832C18.6787 6.16567 18.0251 5.93557 17.3737 5.93557V8.93557C17.3301 8.93557 17.2594 8.92159 17.1835 8.85363L19.1843 6.61832ZM15.8737 7.43557V14.1022H18.8737V7.43557H15.8737ZM15.8737 14.1022C15.8737 13.7834 16.0167 13.5162 16.2055 13.3472L18.2063 15.5825C18.61 15.2212 18.8737 14.6931 18.8737 14.1022H15.8737ZM16.2055 13.3472C16.3888 13.1831 16.6053 13.1151 16.8008 13.1151V16.1151C17.3002 16.1151 17.8081 15.939 18.2063 15.5825L16.2055 13.3472ZM16.8008 13.1151C16.9963 13.1151 17.2127 13.1831 17.3961 13.3472L15.3952 15.5825C15.7935 15.939 16.3014 16.1151 16.8008 16.1151V13.1151ZM17.3961 13.3472C17.5849 13.5162 17.7279 13.7834 17.7279 14.1022H14.7279C14.7279 14.6931 14.9915 15.2211 15.3952 15.5825L17.3961 13.3472ZM17.7279 14.1022V5.38429H14.7279V14.1022H17.7279Z" fill="#ADAFB2" mask="url(#path-1-inside-1_2339_4677)"/>
</svg>
