<svg width="20" height="20" viewBox="0 0 20 20" fill="none" xmlns="http://www.w3.org/2000/svg">
<path d="M14.3488 4.27937L14.4673 4.61133H14.8198H17.8555C18.5659 4.61133 19.1412 5.18658 19.1412 5.89704V16.0756C19.1412 16.7861 18.5659 17.3613 17.8555 17.3613H2.14118C1.43072 17.3613 0.855469 16.7861 0.855469 16.0756V5.89704C0.855469 5.18658 1.43072 4.61133 2.14118 4.61133H5.1769H5.529L5.64765 4.27983L6.3731 2.25304L6.37363 2.25154C6.40284 2.16909 6.48312 2.11133 6.57422 2.11133L13.4224 2.11133L13.4229 2.11133C13.4673 2.11129 13.5107 2.12497 13.5471 2.15051C13.5833 2.17596 13.6109 2.21195 13.626 2.25359C13.626 2.25373 13.6261 2.25387 13.6261 2.25401L14.3488 4.27937ZM7.20145 2.71847H6.84894L6.73051 3.05049L6.21951 4.48309L6.21935 4.48353L5.95643 5.21847H2.14118C1.76683 5.21847 1.46261 5.52269 1.46261 5.89704V16.0756C1.46261 16.45 1.76683 16.7542 2.14118 16.7542H17.8555C18.2298 16.7542 18.534 16.45 18.534 16.0756V5.89704C18.534 5.52269 18.2298 5.21847 17.8555 5.21847H14.038L13.7751 4.48353L13.7749 4.48309L13.2639 3.05049L13.1455 2.71847H12.793H7.20145ZM6.9269 10.7185C6.9269 9.0214 8.30125 7.64704 9.99833 7.64704C11.6954 7.64704 13.0698 9.0214 13.0698 10.7185C13.0698 12.4155 11.6954 13.7899 9.99833 13.7899C8.30125 13.7899 6.9269 12.4155 6.9269 10.7185ZM7.35547 10.7185C7.35547 12.1776 8.53915 13.3613 9.99833 13.3613C11.4575 13.3613 12.6412 12.1776 12.6412 10.7185C12.6412 9.25929 11.4575 8.07561 9.99833 8.07561C8.53915 8.07561 7.35547 9.25929 7.35547 10.7185Z" stroke="#rgba(166, 166, 166, 1)"/>
</svg>
