<svg width="20" height="17" viewBox="0 0 20 17" fill="none" xmlns="http://www.w3.org/2000/svg">
<path d="M14.3488 3.27937L14.4673 3.61133H14.8198H17.8555C18.5659 3.61133 19.1412 4.18658 19.1412 4.89704V15.0756C19.1412 15.7861 18.5659 16.3613 17.8555 16.3613H2.14118C1.43072 16.3613 0.855469 15.7861 0.855469 15.0756V4.89704C0.855469 4.18658 1.43072 3.61133 2.14118 3.61133H5.1769H5.529L5.64765 3.27983L6.3731 1.25304L6.37363 1.25154C6.40284 1.16909 6.48312 1.11133 6.57422 1.11133L13.4224 1.11133L13.4229 1.11133C13.4673 1.11129 13.5107 1.12497 13.5471 1.15051C13.5833 1.17596 13.6109 1.21195 13.626 1.25359C13.626 1.25373 13.6261 1.25387 13.6261 1.25401L14.3488 3.27937ZM7.20145 1.71847H6.84894L6.73051 2.05049L6.21951 3.48309L6.21935 3.48353L5.95643 4.21847H2.14118C1.76683 4.21847 1.46261 4.52269 1.46261 4.89704V15.0756C1.46261 15.45 1.76683 15.7542 2.14118 15.7542H17.8555C18.2298 15.7542 18.534 15.45 18.534 15.0756V4.89704C18.534 4.52269 18.2298 4.21847 17.8555 4.21847H14.038L13.7751 3.48353L13.7749 3.48309L13.2639 2.05049L13.1455 1.71847H12.793H7.20145ZM6.9269 9.71847C6.9269 8.0214 8.30125 6.64704 9.99833 6.64704C11.6954 6.64704 13.0698 8.0214 13.0698 9.71847C13.0698 11.4155 11.6954 12.7899 9.99833 12.7899C8.30125 12.7899 6.9269 11.4155 6.9269 9.71847ZM7.35547 9.71847C7.35547 11.1776 8.53915 12.3613 9.99833 12.3613C11.4575 12.3613 12.6412 11.1776 12.6412 9.71847C12.6412 8.25929 11.4575 7.07561 9.99833 7.07561C8.53915 7.07561 7.35547 8.25929 7.35547 9.71847Z" stroke="#E74FB1"/>
</svg>
