<svg width="17" height="24" viewBox="0 0 17 24" fill="none" xmlns="http://www.w3.org/2000/svg">
<path d="M10.9279 10.4756L8.43719 14.1537L4.75408 17.8184C3.3843 16.0775 1.88852 14.3911 0.976562 12.3513L2.96181 9.31012L6.00667 6.37256C4.98902 7.63026 5.065 9.48004 6.23467 10.6497C7.48605 11.9011 9.51442 11.9011 10.7657 10.6497C10.8221 10.5933 10.8766 10.5351 10.9279 10.4756Z" fill="#ECB72B"/>
<path d="M10.9875 10.4065C12.014 9.14824 11.9412 7.29208 10.7677 6.11927C9.51634 4.86789 7.48797 4.86789 6.23664 6.11927C6.18409 6.17181 6.13403 6.22567 6.08594 6.28075L8.18645 2.86605L11.0362 0.390625C13.1647 1.06441 14.9252 2.56464 15.9416 4.51455L13.8626 7.86686L10.9875 10.4065Z" fill="#5085F7"/>
<path d="M6.00792 6.37239L0.977672 12.3513C0.478781 11.2364 0.154453 10.0161 0.120984 8.62333C0.118453 8.54416 0.117188 8.46438 0.117188 8.3846C0.117188 6.33532 0.852422 4.45699 2.07403 3.00049L6.00792 6.37239Z" fill="#DA2F2A"/>
<path d="M6.00825 6.37261L2.07422 3.00047C3.61247 1.16648 5.92078 0 8.502 0C9.38536 0 10.2368 0.136687 11.0363 0.39L6.00825 6.37261Z" fill="#4274EB"/>
<path d="M16.8847 8.38407C16.8847 6.98818 16.5436 5.67193 15.9402 4.51416L4.75391 17.8185C6.02483 19.4351 7.18611 21.0991 7.66873 23.1367C7.6842 23.2019 7.70084 23.2782 7.71856 23.3639C7.89355 24.2117 9.10747 24.2117 9.28245 23.3639C9.30017 23.2782 9.31681 23.2019 9.33228 23.1367C10.6189 17.7042 16.7295 14.928 16.8812 8.62332C16.8833 8.54382 16.8847 8.46408 16.8847 8.38407Z" fill="#60A850"/>
</svg>
