<svg width="17" height="16" viewBox="0 0 17 16" fill="none" xmlns="http://www.w3.org/2000/svg">
<g clip-path="url(#clip0_3150_23102)">
<path d="M8.4987 14.6663C9.37435 14.6675 10.2416 14.4956 11.0506 14.1605C11.8596 13.8253 12.5943 13.3337 13.2127 12.7137C13.8327 12.0953 14.3244 11.3605 14.6595 10.5515C14.9946 9.74256 15.1665 8.87533 15.1654 7.99968C15.1665 7.12404 14.9946 6.25681 14.6594 5.44782C14.3243 4.63884 13.8327 3.90405 13.2127 3.28568C12.5943 2.66569 11.8596 2.17401 11.0506 1.83891C10.2416 1.5038 9.37435 1.33188 8.4987 1.33301C7.62306 1.3319 6.75583 1.50383 5.94685 1.83893C5.13786 2.17404 4.40307 2.6657 3.7847 3.28568C3.16473 3.90405 2.67306 4.63884 2.33796 5.44782C2.00285 6.25681 1.83092 7.12404 1.83204 7.99968C1.8309 8.87533 2.00283 9.74256 2.33793 10.5515C2.67304 11.3605 3.16471 12.0953 3.7847 12.7137C4.40307 13.3337 5.13786 13.8253 5.94685 14.1604C6.75583 14.4955 7.62306 14.6675 8.4987 14.6663Z" fill="#A0D911" stroke="#A0D911" stroke-width="2" stroke-linejoin="round"/>
<path d="M5.83203 8L7.83203 10L11.832 6" stroke="white" stroke-width="2" stroke-linecap="round" stroke-linejoin="round"/>
</g>
<defs>
<clipPath id="clip0_3150_23102">
<rect width="16" height="16" fill="white" transform="translate(0.5)"/>
</clipPath>
</defs>
</svg>
