<svg width="21" height="20" viewBox="0 0 21 20" fill="none" xmlns="http://www.w3.org/2000/svg">
<path d="M15.2484 5.967C15.1984 5.95866 15.1401 5.95866 15.0901 5.967C13.9401 5.92533 13.0234 4.98366 13.0234 3.81699C13.0234 2.62533 13.9818 1.66699 15.1734 1.66699C16.3651 1.66699 17.3234 2.63366 17.3234 3.81699C17.3151 4.98366 16.3984 5.92533 15.2484 5.967Z" stroke="#000" stroke-width="1.5" stroke-linecap="round" stroke-linejoin="round"/>
<path d="M14.3883 12.0338C15.53 12.2255 16.7883 12.0255 17.6716 11.4338C18.8466 10.6505 18.8466 9.36713 17.6716 8.58379C16.78 7.99213 15.5049 7.79212 14.3633 7.99212" stroke="#000" stroke-width="1.5" stroke-linecap="round" stroke-linejoin="round"/>
<path d="M5.22344 5.967C5.27344 5.95866 5.33177 5.95866 5.38177 5.967C6.53177 5.92533 7.44844 4.98366 7.44844 3.81699C7.44844 2.62533 6.49011 1.66699 5.29844 1.66699C4.10677 1.66699 3.14844 2.63366 3.14844 3.81699C3.15677 4.98366 4.07344 5.92533 5.22344 5.967Z" stroke="#000" stroke-width="1.5" stroke-linecap="round" stroke-linejoin="round"/>
<path d="M6.08255 12.0338C4.94088 12.2255 3.68255 12.0255 2.79922 11.4338C1.62422 10.6505 1.62422 9.36713 2.79922 8.58379C3.69089 7.99213 4.96588 7.79212 6.10755 7.99212" stroke="#000" stroke-width="1.5" stroke-linecap="round" stroke-linejoin="round"/>
<path d="M10.2523 12.1916C10.2023 12.1833 10.144 12.1833 10.094 12.1916C8.94401 12.1499 8.02734 11.2083 8.02734 10.0416C8.02734 8.84994 8.98568 7.8916 10.1773 7.8916C11.369 7.8916 12.3273 8.85827 12.3273 10.0416C12.319 11.2083 11.4023 12.1583 10.2523 12.1916Z" stroke="#000" stroke-width="1.5" stroke-linecap="round" stroke-linejoin="round"/>
<path d="M7.82656 14.8168C6.65156 15.6001 6.65156 16.8835 7.82656 17.6668C9.1599 18.5585 11.3432 18.5585 12.6766 17.6668C13.8516 16.8835 13.8516 15.6001 12.6766 14.8168C11.3516 13.9335 9.1599 13.9335 7.82656 14.8168Z" stroke="#000" stroke-width="1.5" stroke-linecap="round" stroke-linejoin="round"/>
</svg>
