<svg width="28" height="26" viewBox="0 0 28 26" fill="none" xmlns="http://www.w3.org/2000/svg">
<path d="M23.5566 19.4171C23.0085 19.6611 22.3943 19.7813 21.7465 19.7523L18.1277 19.5902C17.3682 19.5562 16.6191 19.8897 16.127 20.4809L13.8261 23.2787C12.7182 24.6258 10.9518 25.0838 9.32883 24.4381C7.70589 23.7924 6.7271 22.2578 6.84577 20.5083L7.70432 7.43924C7.79677 5.97505 8.69147 4.69005 10.0344 4.09215C11.3773 3.49425 12.9309 3.68919 14.0809 4.60022L24.3676 12.7071C25.738 13.7937 26.2326 15.5438 25.6265 17.1819C25.2444 18.2168 24.4976 18.9981 23.5566 19.4171ZM16.4161 18.4257C16.9733 18.1776 17.5784 18.0614 18.1907 18.0844L21.8095 18.2465C23.1183 18.3096 23.9128 17.4633 24.2087 16.6529C24.5047 15.8424 24.4623 14.69 23.4332 13.8784L13.1465 5.77153C12.4242 5.20645 11.4849 5.08827 10.6445 5.46247C9.80402 5.83667 9.26335 6.61376 9.20405 7.53776L8.3455 20.6068C8.26005 21.9147 9.08302 22.7305 9.88839 23.0396C10.6938 23.3488 11.8451 23.3287 12.6781 22.323L14.9791 19.5252C15.3676 19.0457 15.8588 18.6738 16.4161 18.4257Z" fill="#E74FB1"/>
</svg>
