<svg width="24" height="24" viewBox="0 0 24 24" fill="none" xmlns="http://www.w3.org/2000/svg">
<path d="M13.5508 19H15.5508L10.5508 5H8.55078L3.55078 19H5.55078L6.95078 15H12.0508L13.5508 19ZM7.65078 13L9.55078 7.8L11.4508 13H7.65078ZM20.4508 17.5C20.4508 17.7967 20.3628 18.0867 20.198 18.3334C20.0332 18.58 19.7989 18.7723 19.5248 18.8858C19.2507 18.9993 18.9491 19.0291 18.6581 18.9712C18.3672 18.9133 18.0999 18.7704 17.8901 18.5607C17.6803 18.3509 17.5375 18.0836 17.4796 17.7926C17.4217 17.5017 17.4514 17.2001 17.565 16.926C17.6785 16.6519 17.8708 16.4176 18.1174 16.2528C18.3641 16.088 18.6541 16 18.9508 16C19.3486 16 19.7301 16.158 20.0114 16.4393C20.2927 16.7206 20.4508 17.1022 20.4508 17.5ZM20.4508 13.5C20.4508 13.7967 20.3628 14.0867 20.198 14.3334C20.0332 14.58 19.7989 14.7723 19.5248 14.8858C19.2507 14.9994 18.9491 15.0291 18.6581 14.9712C18.3672 14.9133 18.0999 14.7704 17.8901 14.5607C17.6803 14.3509 17.5375 14.0836 17.4796 13.7926C17.4217 13.5017 17.4514 13.2001 17.565 12.926C17.6785 12.6519 17.8708 12.4176 18.1174 12.2528C18.3641 12.088 18.6541 12 18.9508 12C19.3486 12 19.7301 12.158 20.0114 12.4393C20.2927 12.7206 20.4508 13.1022 20.4508 13.5ZM20.4508 9.5C20.4508 9.79667 20.3628 10.0867 20.198 10.3334C20.0332 10.58 19.7989 10.7723 19.5248 10.8858C19.2507 10.9994 18.9491 11.0291 18.6581 10.9712C18.3672 10.9133 18.0999 10.7704 17.8901 10.5607C17.6803 10.3509 17.5375 10.0836 17.4796 9.79264C17.4217 9.50166 17.4514 9.20006 17.565 8.92597C17.6785 8.65189 17.8708 8.41762 18.1174 8.2528C18.3641 8.08797 18.6541 8 18.9508 8C19.3486 8 19.7301 8.15804 20.0114 8.43934C20.2927 8.72064 20.4508 9.10218 20.4508 9.5Z" fill="black"/>
</svg>
