<svg width="33" height="32" viewBox="0 0 33 32" fill="none" xmlns="http://www.w3.org/2000/svg">
<path d="M18.5565 4.68002L20.9032 9.37335C21.2232 10.0267 22.0765 10.6534 22.7965 10.7734L27.0499 11.48C29.7699 11.9334 30.4099 13.9067 28.4499 15.8534L25.1432 19.16C24.5832 19.72 24.2765 20.8 24.4499 21.5734L25.3965 25.6667C26.1432 28.9067 24.4232 30.16 21.5565 28.4667L17.5699 26.1067C16.8499 25.68 15.6632 25.68 14.9299 26.1067L10.9432 28.4667C8.08988 30.16 6.35655 28.8934 7.10321 25.6667L8.04988 21.5734C8.22321 20.8 7.91654 19.72 7.35654 19.16L4.04988 15.8534C2.10321 13.9067 2.72988 11.9334 5.44988 11.48L9.70321 10.7734C10.4099 10.6534 11.2632 10.0267 11.5832 9.37335L13.9299 4.68002C15.2099 2.13335 17.2899 2.13335 18.5565 4.68002Z" fill="#D9D9D9"/>
</svg>
