<svg width="31" height="31" viewBox="0 0 31 31" fill="none" xmlns="http://www.w3.org/2000/svg">
<rect x="0.5" y="0.5" width="30" height="30" rx="15" fill="#722ED1"/>
<g clip-path="url(#clip0_6668_81211)">
<path d="M20.5 8.5H12.125C12.0563 8.5 12 8.55625 12 8.625V9.5C12 9.56875 12.0563 9.625 12.125 9.625H19.875V20.375C19.875 20.4438 19.9313 20.5 20 20.5H20.875C20.9438 20.5 21 20.4438 21 20.375V9C21 8.72344 20.7766 8.5 20.5 8.5ZM18.5 10.5H10.5C10.2234 10.5 10 10.7234 10 11V19.2922C10 19.425 10.0531 19.5516 10.1469 19.6453L12.8547 22.3531C12.8891 22.3875 12.9281 22.4156 12.9703 22.4391V22.4688H13.0359C13.0906 22.4891 13.1484 22.5 13.2078 22.5H18.5C18.7766 22.5 19 22.2766 19 22V11C19 10.7234 18.7766 10.5 18.5 10.5ZM12.9688 20.8781L11.6234 19.5312H12.9688V20.8781ZM17.875 21.375H13.9688V19.1562C13.9688 18.8109 13.6891 18.5312 13.3438 18.5312H11.125V11.625H17.875V21.375Z" fill="white"/>
</g>
<defs>
<clipPath id="clip0_6668_81211">
<rect width="14" height="14" fill="white" transform="translate(8.5 8.5)"/>
</clipPath>
</defs>
</svg>
