<?xml version="1.0" encoding="UTF-8"?>
<svg xmlns="http://www.w3.org/2000/svg" xmlns:xlink="http://www.w3.org/1999/xlink"  viewBox="0 0 60 60">
  <defs>
    <style>
      .cls-1 {
        stroke-width: .14px;
      }

      .cls-1, .cls-2, .cls-3 {
        fill: #241f20;
      }

      .cls-1, .cls-2, .cls-4 {
        stroke: #241f20;
        stroke-miterlimit: 10;
      }

      .cls-5 {
        fill: #fff;
      }

      .cls-6 {
        mix-blend-mode: multiply;
        opacity: .25;
      }

      .cls-6, .cls-7 {
        fill: #ff7c00;
      }

      .cls-8 {
        isolation: isolate;
      }

      .cls-9 {
        fill: #ff414c;
      }

      .cls-10 {
        clip-path: url(#clippath);
      }

      .cls-11 {
        fill: none;
      }

      .cls-2, .cls-4 {
        stroke-width: .1px;
      }

      .cls-12 {
        fill: #64459d;
      }

      .cls-13 {
        fill: #e74fb1;
      }

      .cls-14, .cls-4 {
        fill: #915100;
      }

      .cls-15 {
        fill: #ffd551;
      }
      .shadow {
        filter: drop-shadow(0 0 5px rgba(0, 0, 0, 0.5));
      }
    </style>
    <clipPath id="clippath">
      <circle class="cls-11" cx="30" cy="23.29" r="16.86"/>
    </clipPath>
  </defs>
  <g class="cls-8">
    <g id="Layer_1" data-name="Layer 1">
      <path class="cls-13" d="M30,30c1.53,0,2.83-.54,3.92-1.63s1.63-2.39,1.63-3.92-.54-2.83-1.63-3.92-2.39-1.63-3.92-1.63-2.84,.54-3.92,1.63c-1.08,1.09-1.63,2.4-1.63,3.92s.54,2.83,1.63,3.92,2.4,1.64,3.92,1.63Zm0,27.75c-7.45-6.34-13.01-12.22-16.68-17.65-3.68-5.43-5.51-10.46-5.52-15.09,0-6.94,2.23-12.46,6.7-16.58,4.46-4.12,9.63-6.17,15.5-6.17s11.04,2.06,15.51,6.17c4.47,4.12,6.7,9.64,6.69,16.58,0,4.62-1.84,9.65-5.51,15.09-3.68,5.43-9.24,11.32-16.68,17.65Z"/>
      <circle class="cls-5" cx="30" cy="23.19" r="16.86"/>
      <g class="cls-10">
        <g>
          <path class="cls-15" d="M37.48,40.45s-.7-10.88-.58-11.77,.15-6.62,.31-7.39-.04-2.81-.04-2.81l-.07-.73-.54-1.71s-1.18-2.49-2.61-3.02c.45-1.51,.61-2.28,.61-2.28l-1.06,.9-.53,.77s-2.1-.97-2.51-1.01-.64,.05-.63,.21,.47,.73,.47,.73c0,0-2.11-.43-2.81-.32s-.93,.17-.81,.4,.7,.78,.7,.78l-.73,.08-.49-1.15s-.69,.28-.66,.32,.32,1.12,.32,1.12c0,0-1.28,.29-2.17,1.59s-1.03,2.48-1.62,2.9-2.57,2.05-3.09,3.61,.42,5.51,4.22,5.6c2.77,.34,4.01,.08,4.01,.08,0,0-.33,3.75-.87,5.2-.75,1.35-.88,1.91-1.16,2.54-.13,.29,1.09,.26,1.47,0-.43,3.08-1.26,5.47-1.27,5.56-.03,.2,2.72-.52,2.72-.52,0,0-.53,2.57,2.19,2.49s5.04-.53,7.24-2.14Z"/>
          <path class="cls-12" d="M27.3,42.06s.63-3.32-1.53-3.9c-.33,1.43-.45,2.47-.45,2.47l1.98,1.43Z"/>
          <path class="cls-7" d="M33.74,23.4s-2.05,5.87-6.76,5.87c.13-.87,.16-1.1,.16-1.1,0,0,4.94-1.47,6.6-4.77Z"/>
          <polygon class="cls-7" points="25.51 12.36 26.18 12.04 26.58 13.26 25.75 13.5 25.51 12.36"/>
          <path class="cls-15" d="M35.55,15.42s.74-4.16,4.53-3.94c1.5,2.82-1.53,4.31-3.86,4-1.38-.86-.67-.06-.67-.06Z"/>
          <path class="cls-15" d="M24.36,14.47s-1.25-1.74-2.38-2.05-1.5,0-1.5,0c0,0-.06,3.06,2.11,2.82s2.45-.98,2.45-.98l-.67,.21Z"/>
          <path class="cls-7" d="M36.04,15.21s1.01-2.08,4.04-3.73c.43,1.04,.45,2.74-1.08,3.59s-2.78,.42-2.78,.42l-.18-.28Z"/>
          <path class="cls-7" d="M23.99,14.44s-2.54-1.84-3.52-2.02c-.09,1.16,.61,3.55,3.18,2.54,.49-.43,.33-.52,.33-.52Z"/>
          <path class="cls-12" d="M37.05,23.8s-2.91-.28-3.35,3.67c-.29,2.57,3.22,2.72,3.22,2.72l.13-6.39Z"/>
          <path class="cls-12" d="M30.52,31.29c-1.18,.12-2.78,2.61-1.23,3.79s3.59,0,3.55-1.22-.2-2.79-2.32-2.57Z"/>
          <path class="cls-5" d="M32.39,25.2s1.97-5.65-8-5.35c-.34-.52-1.41-1.62-2.02-.67-.12,.43,0,.89,.24,1.04-.52-.06-2.94-.09-3.67,1.43s.61,7.27,6.18,6.73c5.57-.55,6.93-2.62,7.27-3.17Z"/>
          <ellipse class="cls-7" cx="32.8" cy="19.96" rx="1.35" ry=".63"/>
          <path class="cls-7" d="M21.76,18.32s.83-.03,.61,.34-1.38,.15-1.38,.15l.77-.49Z"/>
          <polygon class="cls-7" points="34.49 13.28 33.66 13.65 33.96 13.01 34.49 13.28"/>
          <path class="cls-15" d="M23.74,20.64s1.8-.52,1.74-1.07-1.1,0-1.1,0l-.76,.4,.12,.67Z"/>
          <path class="cls-15" d="M23.74,20.64s2.4-1,4.35-.63c1.14,.21-1.53-.84-1.53-.84l-1.22-.25-1.22,.73-.38,.98Z"/>
          <path class="cls-2" d="M24.86,28.44c-3.38,0-4.87-1.57-5.53-2.9-.96-1.96-.57-4.33,.36-5.49,.75-.92,1.29-1.34,1.72-1.67,.57-.43,.94-.72,1.36-1.82,.8-2.12,2.26-3.25,4.46-3.45-.44-.34-.66-.67-.59-.9,.03-.1,.13-.23,.43-.25,.78-.05,1.93-.04,3.05,.26-.3-.32-.42-.59-.32-.77,.08-.14,.29-.18,.55-.1,.06,.02,.15,.04,.27,.06,.47,.1,1.34,.29,2.3,.89,.03,.02,.04,.05,.02,.08-.02,.03-.05,.04-.08,.02-.95-.6-1.81-.78-2.27-.88-.12-.03-.21-.05-.28-.07-.2-.06-.36-.04-.41,.05-.07,.12,.02,.38,.47,.79,.02,.02,.03,.05,.01,.07-.01,.02-.04,.04-.07,.03-1.18-.37-2.41-.38-3.24-.33-.13,0-.29,.04-.32,.17-.04,.15,.11,.47,.68,.87,.02,.01,.03,.04,.02,.06s-.03,.04-.05,.04c-2.24,.15-3.72,1.26-4.52,3.38-.42,1.13-.83,1.44-1.39,1.87-.43,.33-.97,.74-1.7,1.65-.89,1.1-1.28,3.46-.35,5.36,.66,1.33,2.17,2.91,5.68,2.83,6.77-.15,8.64-4.96,8.66-5.01,.01-.03,.05-.05,.08-.03,.03,.01,.05,.05,.03,.08-.02,.05-1.92,4.93-8.77,5.09-.09,0-.17,0-.26,0Z"/>
          <path class="cls-2" d="M37.39,38.37s-.05-.02-.06-.05c0-.07-.93-6.65-.19-16.38l.02-.22c.16-2.11,.34-4.3-1.59-7.14-.36-.53-1.07-1.23-1.63-1.49-.03-.01-.04-.05-.03-.08,.01-.03,.05-.04,.08-.03,.6,.27,1.31,.99,1.67,1.53,1.95,2.87,1.78,5.08,1.61,7.22l-.02,.22c-.74,9.72,.18,16.29,.19,16.36,0,.03-.02,.06-.05,.07,0,0,0,0,0,0Z"/>
          <path class="cls-2" d="M25.32,40.78s-.01,0-.02,0c-.03,0-.04-.01-.04-.08h0s0-.01,0-.02c.01-.11,.06-.34,.18-.84,.12-.52,.27-1.21,.43-1.91,.28-1.21,.56-2.42,.64-2.78-.33,.09-1.29,.33-1.44-.07-.11-.28,.23-.92,.73-1.79,.18-.31,.34-.6,.43-.8,.22-.51,.63-2.84,.85-4.34,0-.03,.04-.06,.07-.05,.03,0,.05,.03,.05,.07-.22,1.5-.63,3.85-.86,4.37-.09,.2-.26,.5-.44,.81-.35,.6-.82,1.43-.72,1.68,.1,.26,.91,.12,1.4-.03l.1-.03-.03,.1s-1.11,4.8-1.26,5.55c0,.01,0,.02,0,.04-.02,.07-.03,.12-.07,.12Z"/>
          <path class="cls-1" d="M36.97,15.6c-.25,0-.5-.01-.77-.04-.03,0-.06-.03-.05-.07,0-.03,.03-.06,.07-.05,1.67,.19,2.97-.23,3.65-1.18,.56-.77,.65-1.86,.24-2.77-3.66,.08-4.2,3.26-4.21,3.29,0,.03-.04,.05-.07,.05-.03,0-.05-.04-.05-.07,0-.03,.56-3.33,4.36-3.39,.03,0,.04,.01,.05,.03,.45,.96,.35,2.11-.24,2.93-.6,.83-1.65,1.27-2.99,1.27Z"/>
          <path class="cls-2" d="M22.47,15.3c-.4,0-.76-.11-1.06-.33-.76-.56-1.05-1.72-.95-2.59v-.04s.05,0,.05,0c2.31-.43,3.78,1.81,3.79,1.83,.02,.03,0,.06-.02,.08-.03,.02-.06,0-.08-.02-.01-.02-1.42-2.17-3.63-1.79-.08,.83,.2,1.91,.91,2.43,.56,.41,1.28,.42,2.16,.03,.03-.01,.06,0,.08,.03,.01,.03,0,.07-.03,.08-.44,.19-.84,.29-1.22,.29Z"/>
          <path class="cls-3" d="M32.62,12.93s-.02,0-.03,0c-.03-.02-.03-.05-.02-.08l.87-1.31s.05-.03,.08-.02c.03,.02,.03,.05,.02,.08l-.87,1.31s-.03,.03-.05,.03Z"/>
          <path class="cls-3" d="M33.69,13.7s-.01,0-.02,0c-.03-.01-.05-.05-.04-.08l.58-1.6s.05-.05,.08-.04c.03,.01,.05,.05,.04,.08l-.58,1.6s-.03,.04-.06,.04Z"/>
          <g>
            <circle class="cls-14" cx="34.59" cy="10.64" r="1.4"/>
            <path class="cls-2" d="M34.59,12.1h0c-.39,0-.76-.15-1.03-.43-.28-.28-.43-.64-.43-1.03,0-.81,.66-1.46,1.46-1.46h0c.39,0,.76,.15,1.03,.43,.28,.28,.43,.64,.43,1.03,0,.39-.15,.76-.43,1.03-.28,.28-.64,.43-1.03,.43Zm0-2.8c-.74,0-1.34,.6-1.34,1.34,0,.36,.14,.7,.39,.95,.25,.25,.59,.39,.95,.39h0c.36,0,.69-.14,.95-.39,.25-.25,.39-.59,.39-.95h0c0-.36-.14-.7-.39-.95-.25-.25-.59-.39-.95-.39h0Z"/>
          </g>
          <g>
            <circle class="cls-4" cx="25.46" cy="11.13" r="1.29"/>
            <path class="cls-2" d="M25.46,12.48h0c-.74,0-1.35-.61-1.35-1.35,0-.74,.61-1.35,1.35-1.35h0c.74,0,1.35,.61,1.35,1.35,0,.36-.14,.7-.4,.95-.26,.25-.59,.39-.95,.39Zm0-2.58c-.68,0-1.23,.55-1.23,1.23,0,.68,.55,1.23,1.23,1.23h0c.33,0,.64-.13,.87-.36,.23-.23,.36-.54,.36-.87,0-.68-.55-1.23-1.23-1.23h0Z"/>
          </g>
          <path class="cls-3" d="M26.61,13.26s-.05-.01-.05-.04l-.41-.97s0-.07,.03-.08c.03-.01,.07,0,.08,.03l.41,.97s0,.07-.03,.08c0,0-.02,0-.02,0Z"/>
          <path class="cls-3" d="M25.76,13.5s-.05-.02-.06-.05l-.22-.97s.01-.06,.04-.07c.03,0,.06,.01,.07,.04l.22,.97s-.01,.06-.04,.07c0,0,0,0-.01,0Z"/>
          <path class="cls-3" d="M32.69,20.43s-.02,0-.03,0c-.06,0-.12-.04-.15-.08-.08-.11-.06-.28-.04-.46,0-.05,.02-.12,.02-.18-.08,.11-.18,.36-.21,.46-.02,.06-.08,.1-.14,.09-.06-.02-.1-.08-.09-.14,0,0,.16-.56,.38-.67,.05-.03,.11-.03,.16,0,.17,.07,.14,.28,.11,.48-.01,.09-.03,.25-.01,.28h0c.08,0,.28-.27,.4-.58,.02-.06,.09-.09,.15-.06,.06,.02,.09,.09,.06,.15-.07,.17-.32,.72-.63,.72Z"/>
          <g>
            <path class="cls-14" d="M28.13,14.5c.13,.2,.73,.11,1.3,.08s1.54,.15,1.68,.03c.29-.23-.08-1.61-1.54-1.53s-1.61,1.18-1.44,1.42Z"/>
            <path class="cls-3" d="M30.86,14.71c-.14,0-.33-.01-.57-.03-.29-.02-.62-.05-.86-.04-.1,0-.21,.01-.31,.02-.49,.04-.91,.07-1.04-.12-.09-.13-.1-.43,.05-.74,.13-.27,.5-.73,1.44-.78,.91-.05,1.44,.46,1.62,.95,.11,.3,.09,.58-.04,.68-.05,.04-.14,.05-.28,.05Zm-1.29-.19c.23,0,.49,.02,.73,.04,.31,.03,.71,.06,.77,0,.08-.06,.1-.28,0-.55-.17-.45-.66-.92-1.51-.88-.88,.05-1.22,.46-1.34,.71-.14,.28-.11,.53-.06,.62h0c.09,.13,.52,.1,.94,.07,.1,0,.21-.01,.31-.02,.05,0,.1,0,.15,0Z"/>
          </g>
          <g>
            <path class="cls-14" d="M24.01,14.54c.08,.2,.46,.11,.82,.08s.97,.15,1.06,.03c.18-.23-.03-1.32-.95-1.24s-1.03,.89-.92,1.13Z"/>
            <path class="cls-3" d="M25.73,14.75c-.09,0-.21-.01-.36-.03-.18-.02-.39-.05-.54-.04-.06,0-.13,.01-.19,.02-.31,.03-.6,.07-.68-.13h0c-.07-.16-.05-.46,.1-.72,.12-.2,.37-.45,.87-.49,.55-.04,.82,.3,.93,.51,.16,.3,.19,.67,.07,.83-.04,.04-.1,.06-.2,.06Zm-.81-.19c.14,0,.31,.02,.46,.04,.17,.02,.42,.05,.46,.02,.07-.09,.08-.4-.08-.7-.1-.18-.34-.49-.82-.45-.45,.04-.67,.26-.78,.43-.14,.24-.14,.51-.1,.62,.05,.12,.3,.09,.56,.06,.06,0,.13-.01,.2-.02,.03,0,.06,0,.1,0Z"/>
          </g>
          <path class="cls-3" d="M27.21,17.23s-.09-.02-.12-.05c-.27-.25-.51-.36-.71-.32-.23,.04-.35,.27-.35,.27-.04,.09-.15,.12-.24,.08-.09-.04-.12-.15-.08-.24,0-.02,.2-.38,.61-.46,.32-.06,.66,.08,1.02,.41,.07,.07,.08,.18,.01,.25-.04,.04-.08,.06-.13,.06Z"/>
          <path class="cls-3" d="M31.95,17.01s-.06-.01-.09-.04c-.05-.05-.04-.12,0-.17,.74-.7,3.18-3.01,3.56-3.04,.43-.04,.56,.19,.57,.22,.03,.06,0,.13-.05,.16-.06,.03-.13,0-.16-.05,0,0-.07-.11-.34-.09-.24,.05-1.94,1.57-3.42,2.97-.02,.02-.05,.03-.08,.03Z"/>
          <g>
            <circle class="cls-15" cx="29.59" cy="17.51" r="2.45"/>
            <path class="cls-3" d="M29.59,20.08h0c-.69,0-1.33-.27-1.81-.75s-.75-1.13-.75-1.81,.27-1.33,.75-1.81c.48-.48,1.13-.75,1.81-.75h0c1.41,0,2.56,1.15,2.56,2.57,0,.69-.27,1.33-.75,1.81-.48,.48-1.13,.75-1.81,.75Zm0-4.89c-1.28,0-2.33,1.04-2.33,2.33,0,.62,.24,1.21,.68,1.65,.44,.44,1.02,.68,1.65,.68h0c.62,0,1.21-.24,1.64-.68,.44-.44,.68-1.02,.68-1.65,0-1.28-1.04-2.33-2.33-2.33h0Z"/>
          </g>
          <g>
            <ellipse class="cls-15" cx="24.2" cy="17.33" rx="1.69" ry="2.06"/>
            <path class="cls-3" d="M24.2,19.51h0c-1,0-1.81-.98-1.81-2.18,0-1.2,.81-2.18,1.81-2.18h0c1,0,1.81,.98,1.81,2.18h-.12s.12,0,.12,0c0,1.2-.81,2.18-1.81,2.18Zm0-4.13c-.87,0-1.57,.87-1.57,1.94,0,1.07,.7,1.95,1.57,1.95h0c.87,0,1.57-.87,1.57-1.94,0-1.07-.7-1.95-1.57-1.95h0Z"/>
          </g>
          <g>
            <path class="cls-3" d="M30.69,18.28c-.08,0-.15-.04-.2-.11-.01-.02-.24-.32-.95-.39-.76-.07-1.17,.11-1.17,.11-.1,.05-.21,.02-.28-.06s-.07-.2-.01-.29c.04-.05,.9-1.24,2.51-.88,.13,.03,.21,.15,.18,.28-.03,.13-.16,.21-.28,.18-.59-.13-1.05,0-1.39,.17,.15,0,.31,0,.48,.02,.96,.09,1.27,.55,1.31,.6,.07,.11,.04,.26-.08,.33-.04,.02-.08,.04-.13,.04Z"/>
            <path class="cls-3" d="M25.03,17.75c-.07,0-.14-.03-.18-.1-.03-.02-.19-.13-.62-.13-.38,0-.76,.06-1.02,.17-.12,.05-.26,0-.31-.13-.05-.12,0-.26,.13-.31,.32-.13,.76-.21,1.2-.21h0c-.18-.09-.42-.16-.73-.2-.13-.02-.22-.14-.2-.27s.14-.22,.27-.2c1.42,.19,1.68,1.02,1.69,1.05,.03,.11-.01,.25-.12,.3-.03,.02-.07,.02-.11,.02Zm-.18-.11h0Z"/>
          </g>
          <g>
            <path class="cls-15" d="M24.46,19.91s-.85-1.45-1.75-1.03-.19,1.92,1.07,1.77"/>
            <path class="cls-3" d="M23.61,20.78c-.71,0-1.23-.49-1.38-1-.12-.44,.04-.83,.43-1.01,.99-.46,1.86,1.01,1.9,1.08,.03,.06,.01,.13-.04,.16-.06,.03-.13,.01-.16-.04,0-.01-.8-1.35-1.6-.98-.28,.13-.4,.4-.3,.73,.13,.46,.63,.9,1.31,.82,.07,0,.12,.04,.13,.1s-.04,.12-.1,.13c-.06,0-.13,.01-.19,.01Z"/>
          </g>
          <path class="cls-6" d="M37.3,37.58s-2.24,.33-4.8,1.08c-2.69,.8-7.46,3.24-7.49,3.33s-.12,.89-.12,.89c0,0,7.22-3.73,9.24-4.1,2.05-.64,3.27-.28,3.27-.28l-.09-.93Z"/>
          <g>
            <path class="cls-3" d="M28.33,23.33l2.06-.67s-.03,.03,0,.65-1.27,1.36-1.27,1.36l-.44-.26-.34-1.08Z"/>
            <path class="cls-9" d="M28.86,24.42s.19,1.42,.82,1.01c.96-.63,.71-2.13,.71-2.13,0,0-1.04,0-1.53,1.12Z"/>
            <path class="cls-3" d="M29.47,25.6c-.69,0-1.17-1.86-1.26-2.24-.01-.06,.02-.12,.08-.14l2.06-.67s.07,0,.1,.01,.05,.05,.05,.08c.01,.07,.24,1.84-.36,2.6-.17,.21-.38,.33-.63,.35-.01,0-.03,0-.04,0Zm-1-2.19c.22,.87,.65,1.99,1.01,1.95,.19-.02,.34-.1,.47-.26,.45-.57,.37-1.85,.33-2.28l-1.81,.59Z"/>
          </g>
          <path class="cls-3" d="M33.91,38.95s-.08-.02-.1-.06c-.03-.06-.01-.13,.05-.16,1.21-.66,3.45-.54,3.54-.53,.07,0,.12,.06,.11,.13,0,.07-.06,.11-.13,.11-.02,0-2.26-.12-3.41,.51-.02,0-.04,.01-.06,.01Z"/>
          <path class="cls-6" d="M25.95,33.17s-.57,1.63-.06,1.64,1.34-.37,1.34-.37l-.58,2.3-.4-.15,.35-1.53s-1.71,.54-1.48-.29,.83-1.6,.83-1.6Z"/>
          <path class="cls-15" d="M40.36,22s-.19,.98,1.26,1.53c-1.04,.37-1.09,1.12-1.19,1.67-.14-.48-.3-1.51-1.32-1.55,.6-.21,1.11-.56,1.26-1.65Z"/>
          <path class="cls-15" d="M38.56,25.33s-.12,.62,.79,.96c-.65,.23-.69,.71-.75,1.05-.09-.3-.19-.95-.83-.97,.38-.13,.7-.35,.79-1.04Z"/>
        </g>
      </g>
    </g>
  </g>
</svg>