<svg width="16" height="16" viewBox="0 0 16 16" fill="none" xmlns="http://www.w3.org/2000/svg">
<g clip-path="url(#clip0_3150_8214)">
<path d="M7.9987 14.6663C8.87435 14.6675 9.74159 14.4956 10.5506 14.1605C11.3596 13.8253 12.0943 13.3337 12.7127 12.7137C13.3327 12.0953 13.8244 11.3605 14.1595 10.5515C14.4946 9.74256 14.6665 8.87533 14.6654 7.99968C14.6665 7.12404 14.4946 6.25681 14.1594 5.44782C13.8243 4.63884 13.3327 3.90405 12.7127 3.28568C12.0943 2.66569 11.3596 2.17401 10.5506 1.83891C9.74159 1.5038 8.87435 1.33188 7.9987 1.33301C7.12306 1.3319 6.25583 1.50383 5.44685 1.83893C4.63786 2.17404 3.90307 2.6657 3.2847 3.28568C2.66473 3.90405 2.17306 4.63884 1.83796 5.44782C1.50285 6.25681 1.33092 7.12404 1.33204 7.99968C1.3309 8.87533 1.50283 9.74256 1.83793 10.5515C2.17304 11.3605 2.66471 12.0953 3.2847 12.7137C3.90307 13.3337 4.63786 13.8253 5.44685 14.1604C6.25583 14.4955 7.12306 14.6675 7.9987 14.6663Z" stroke="#A6A6A6" stroke-width="2" stroke-linejoin="round"/>
<path d="M5.33203 8L7.33203 10L11.332 6" stroke="#A6A6A6" stroke-width="2" stroke-linecap="round" stroke-linejoin="round"/>
</g>
<defs>
<clipPath id="clip0_3150_8214">
<rect width="16" height="16" fill="white"/>
</clipPath>
</defs>
</svg>
