<svg width="16" height="16" viewBox="0 0 16 16" fill="none" xmlns="http://www.w3.org/2000/svg">
<path d="M3.82494 10.6663C3.89828 10.3397 3.76495 9.87301 3.53161 9.63968L1.91161 8.01967C1.40495 7.51301 1.20495 6.97301 1.35161 6.50634C1.50495 6.03967 1.97828 5.71967 2.68495 5.59967L4.76495 5.25301C5.06494 5.19967 5.43161 4.93301 5.57161 4.65967L6.71828 2.35967C7.05161 1.69967 7.50495 1.33301 7.99828 1.33301C8.49161 1.33301 8.94494 1.69967 9.27828 2.35967L10.4249 4.65967C10.5116 4.83301 10.6916 4.99967 10.8849 5.11301L3.70495 12.293C3.61161 12.3863 3.45161 12.2997 3.47828 12.1663L3.82494 10.6663Z" fill="#FFC53D"/>
<path d="M12.4672 9.64026C12.2272 9.88026 12.0939 10.3403 12.1739 10.6669L12.6339 12.6736C12.8272 13.5069 12.7072 14.1336 12.2939 14.4336C12.1272 14.5536 11.9272 14.6136 11.6939 14.6136C11.3539 14.6136 10.9539 14.4869 10.5139 14.2269L8.56052 13.0669C8.25385 12.8869 7.74719 12.8869 7.44052 13.0669L5.48719 14.2269C4.74719 14.6603 4.11385 14.7336 3.70719 14.4336C3.55385 14.3203 3.44052 14.1669 3.36719 13.9669L11.4739 5.86026C11.7805 5.55359 12.2139 5.41359 12.6339 5.48692L13.3072 5.60026C14.0139 5.72026 14.4872 6.04026 14.6405 6.50692C14.7872 6.97359 14.5872 7.51359 14.0805 8.02026L12.4672 9.64026Z" fill="#D9D9D9"/>
</svg>
