<svg width="33" height="32" viewBox="0 0 33 32" fill="none" xmlns="http://www.w3.org/2000/svg">
<circle cx="16.125" cy="16" r="16" fill="#DDDDDD"/>
<path d="M22.3789 10.375H20.2133L19.1484 8.77813C19.0914 8.69262 19.0141 8.6225 18.9235 8.57399C18.8329 8.52548 18.7317 8.50006 18.6289 8.5H13.6289C13.5261 8.50006 13.4249 8.52548 13.3343 8.57399C13.2437 8.6225 13.1664 8.69262 13.1094 8.77813L12.0438 10.375H9.87891C9.38163 10.375 8.90471 10.5725 8.55308 10.9242C8.20145 11.2758 8.00391 11.7527 8.00391 12.25V21C8.00391 21.4973 8.20145 21.9742 8.55308 22.3258C8.90471 22.6775 9.38163 22.875 9.87891 22.875H22.3789C22.8762 22.875 23.3531 22.6775 23.7047 22.3258C24.0564 21.9742 24.2539 21.4973 24.2539 21V12.25C24.2539 11.7527 24.0564 11.2758 23.7047 10.9242C23.3531 10.5725 22.8762 10.375 22.3789 10.375ZM23.0039 21C23.0039 21.1658 22.9381 21.3247 22.8208 21.4419C22.7036 21.5592 22.5447 21.625 22.3789 21.625H9.87891C9.71315 21.625 9.55418 21.5592 9.43696 21.4419C9.31975 21.3247 9.25391 21.1658 9.25391 21V12.25C9.25391 12.0842 9.31975 11.9253 9.43696 11.8081C9.55418 11.6908 9.71315 11.625 9.87891 11.625H12.3789C12.4818 11.6251 12.5832 11.5997 12.6739 11.5512C12.7647 11.5027 12.8421 11.4325 12.8992 11.3469L13.9633 9.75H18.2938L19.3586 11.3469C19.4157 11.4325 19.4931 11.5027 19.5839 11.5512C19.6746 11.5997 19.776 11.6251 19.8789 11.625H22.3789C22.5447 11.625 22.7036 11.6908 22.8208 11.8081C22.9381 11.9253 23.0039 12.0842 23.0039 12.25V21ZM16.1289 12.875C15.449 12.875 14.7844 13.0766 14.2191 13.4543C13.6538 13.832 13.2132 14.3689 12.9531 14.997C12.6929 15.6251 12.6248 16.3163 12.7575 16.9831C12.8901 17.6499 13.2175 18.2624 13.6982 18.7432C14.179 19.2239 14.7915 19.5513 15.4583 19.6839C16.1251 19.8166 16.8163 19.7485 17.4444 19.4883C18.0725 19.2282 18.6094 18.7876 18.9871 18.2223C19.3648 17.657 19.5664 16.9924 19.5664 16.3125C19.5654 15.4011 19.2029 14.5274 18.5584 13.883C17.914 13.2385 17.0403 12.876 16.1289 12.875ZM16.1289 18.5C15.6963 18.5 15.2733 18.3717 14.9136 18.1313C14.5539 17.891 14.2735 17.5493 14.1079 17.1496C13.9424 16.7499 13.899 16.3101 13.9834 15.8857C14.0678 15.4614 14.2762 15.0716 14.5821 14.7657C14.888 14.4598 15.2778 14.2514 15.7021 14.167C16.1265 14.0826 16.5663 14.1259 16.966 14.2915C17.3657 14.4571 17.7074 14.7375 17.9477 15.0972C18.1881 15.4569 18.3164 15.8799 18.3164 16.3125C18.3164 16.8927 18.0859 17.4491 17.6757 17.8593C17.2655 18.2695 16.7091 18.5 16.1289 18.5Z" fill="#1E1E1E"/>
</svg>
