<svg width="16" height="17" viewBox="0 0 16 17" fill="none" xmlns="http://www.w3.org/2000/svg">
<path d="M9.33203 3.46859C9.33203 2.73525 8.73203 2.13525 7.9987 2.13525C7.26536 2.13525 6.66536 2.73525 6.66536 3.46859C6.66536 4.20192 7.26536 4.80192 7.9987 4.80192C8.73203 4.80192 9.33203 4.20192 9.33203 3.46859Z" stroke="#BFBFBF" stroke-width="1.5"/>
<path d="M9.33203 12.8021C9.33203 12.0687 8.73203 11.4687 7.9987 11.4687C7.26536 11.4687 6.66536 12.0687 6.66536 12.8021C6.66536 13.5354 7.26536 14.1354 7.9987 14.1354C8.73203 14.1354 9.33203 13.5354 9.33203 12.8021Z" stroke="#BFBFBF" stroke-width="1.5"/>
<path d="M9.33203 8.13509C9.33203 7.40176 8.73203 6.80176 7.9987 6.80176C7.26536 6.80176 6.66536 7.40176 6.66536 8.13509C6.66536 8.86842 7.26536 9.46842 7.9987 9.46842C8.73203 9.46842 9.33203 8.86842 9.33203 8.13509Z" stroke="#BFBFBF" stroke-width="1.5"/>
</svg>
