<svg width="20" height="20" viewBox="0 0 20 20" fill="none" xmlns="http://www.w3.org/2000/svg">
<path d="M15.0922 17.5216L15.0917 17.5213L11.0271 15.2641C10.7207 15.0907 10.3495 15.0189 10.0062 15.0189C9.66172 15.0189 9.28952 15.0912 8.98074 15.2633C8.98064 15.2633 8.98053 15.2634 8.98042 15.2634L4.91612 17.5205C4.91585 17.5206 4.91558 17.5208 4.91531 17.5209C4.35359 17.83 3.95268 17.794 3.72144 17.6578C3.49049 17.5218 3.26562 17.1896 3.26562 16.5501V4.80846C3.26562 3.31794 4.49177 2.0918 5.98229 2.0918H14.0156C15.5128 2.0918 16.733 3.31652 16.7406 4.80966V16.5501C16.7406 17.1952 16.5149 17.5286 16.2848 17.6641C16.055 17.7994 15.6549 17.835 15.0922 17.5216ZM10.0358 11.212L13.3692 7.87868C13.8061 7.44175 13.8061 6.72517 13.3692 6.28824C12.9322 5.85131 12.2157 5.85131 11.7787 6.28824L9.24063 8.82636L8.78585 8.37158C8.34892 7.93465 7.63233 7.93465 7.19541 8.37158C6.75848 8.80851 6.75848 9.52509 7.19541 9.96202L8.44541 11.212C8.66911 11.4357 8.95684 11.5418 9.24063 11.5418C9.52441 11.5418 9.81214 11.4357 10.0358 11.212Z" fill="white" stroke="white"/>
</svg>
