<svg width="16" height="17" viewBox="0 0 16 17" fill="none" xmlns="http://www.w3.org/2000/svg">
<path d="M8 2.22168C4.79063 2.22168 2.1875 4.8248 2.1875 8.03418C2.1875 11.2436 4.79063 13.8467 8 13.8467C11.2094 13.8467 13.8125 11.2436 13.8125 8.03418C13.8125 4.8248 11.2094 2.22168 8 2.22168ZM11 8.40918C11 8.47793 10.9438 8.53418 10.875 8.53418H8.5V10.9092C8.5 10.9779 8.44375 11.0342 8.375 11.0342H7.625C7.55625 11.0342 7.5 10.9779 7.5 10.9092V8.53418H5.125C5.05625 8.53418 5 8.47793 5 8.40918V7.65918C5 7.59043 5.05625 7.53418 5.125 7.53418H7.5V5.15918C7.5 5.09043 7.55625 5.03418 7.625 5.03418H8.375C8.44375 5.03418 8.5 5.09043 8.5 5.15918V7.53418H10.875C10.9438 7.53418 11 7.59043 11 7.65918V8.40918Z" fill="#E6F7FF"/>
<path d="M8 1.03418C4.13437 1.03418 1 4.16855 1 8.03418C1 11.8998 4.13437 15.0342 8 15.0342C11.8656 15.0342 15 11.8998 15 8.03418C15 4.16855 11.8656 1.03418 8 1.03418ZM8 13.8467C4.79063 13.8467 2.1875 11.2436 2.1875 8.03418C2.1875 4.82481 4.79063 2.22168 8 2.22168C11.2094 2.22168 13.8125 4.82481 13.8125 8.03418C13.8125 11.2436 11.2094 13.8467 8 13.8467Z" fill="#1890FF"/>
<path d="M10.875 7.53418H8.5V5.15918C8.5 5.09043 8.44375 5.03418 8.375 5.03418H7.625C7.55625 5.03418 7.5 5.09043 7.5 5.15918V7.53418H5.125C5.05625 7.53418 5 7.59043 5 7.65918V8.40918C5 8.47793 5.05625 8.53418 5.125 8.53418H7.5V10.9092C7.5 10.9779 7.55625 11.0342 7.625 11.0342H8.375C8.44375 11.0342 8.5 10.9779 8.5 10.9092V8.53418H10.875C10.9438 8.53418 11 8.47793 11 8.40918V7.65918C11 7.59043 10.9438 7.53418 10.875 7.53418Z" fill="#1890FF"/>
</svg>
