<svg width="width" height="height" viewBox="0 0 17 16" fill="none" xmlns="http://www.w3.org/2000/svg">
<path d="M9.65523 2.33977L10.8286 4.68643C10.9886 5.0131 11.4152 5.32643 11.7752 5.38643L13.9019 5.73977C15.2619 5.96643 15.5819 6.9531 14.6019 7.92643L12.9486 9.57977C12.6686 9.85977 12.5152 10.3998 12.6019 10.7864L13.0752 12.8331C13.4486 14.4531 12.5886 15.0798 11.1552 14.2331L9.16189 13.0531C8.80189 12.8398 8.20856 12.8398 7.84189 13.0531L5.84856 14.2331C4.42189 15.0798 3.55523 14.4464 3.92856 12.8331L4.40189 10.7864C4.48856 10.3998 4.33523 9.85977 4.05523 9.57977L2.40189 7.92643C1.42856 6.9531 1.74189 5.96643 3.10189 5.73977L5.22856 5.38643C5.58189 5.32643 6.00856 5.0131 6.16856 4.68643L7.34189 2.33977C7.98189 1.06643 9.02189 1.06643 9.65523 2.33977Z" stroke="#A6A6A6" stroke-width="2" stroke-linecap="round" stroke-linejoin="round"/>
</svg>
