<svg width="20" height="20" viewBox="0 0 20 20" fill="none" xmlns="http://www.w3.org/2000/svg">
<path d="M11.613 2.73452L11.6132 2.73471L16.4131 6.09298C16.4132 6.093 16.4132 6.09302 16.4132 6.09304C16.7908 6.35734 17.153 6.79466 17.4212 7.30851C17.6895 7.82239 17.8415 8.37013 17.8415 8.83336V14.4834C17.8415 16.3322 16.3404 17.8334 14.4915 17.8334H5.5082C3.66075 17.8334 2.1582 16.3253 2.1582 14.475V8.72503C2.1582 8.29559 2.29567 7.77568 2.54011 7.27923C2.78441 6.78305 3.11427 6.35358 3.45739 6.08595L3.45749 6.08586L7.63111 2.8286C7.63133 2.82843 7.63155 2.82827 7.63177 2.8281C8.71694 1.9878 10.4843 1.94377 11.613 2.73452ZM9.99987 16.125C10.6177 16.125 11.1249 15.6178 11.1249 15V12.5C11.1249 11.8822 10.6177 11.375 9.99987 11.375C9.38206 11.375 8.87487 11.8822 8.87487 12.5V15C8.87487 15.6178 9.38206 16.125 9.99987 16.125Z" fill="#E74FB1" stroke="#E74FB1"/>
</svg>
