<svg width="51" height="50" viewBox="0 0 51 50" fill="none" xmlns="http://www.w3.org/2000/svg">
<g clip-path="url(#clip0_6170_79760)">
<path d="M27.7919 24.8382L23.4503 30.3739L21.1568 27.4498C21.1151 27.3964 21.0617 27.3533 21.0008 27.3236C20.9399 27.2939 20.873 27.2785 20.8052 27.2785C20.7375 27.2785 20.6706 27.2939 20.6097 27.3236C20.5488 27.3533 20.4954 27.3964 20.4537 27.4498L14.8845 34.548C14.833 34.6138 14.801 34.6928 14.7922 34.7759C14.7835 34.859 14.7983 34.9429 14.8349 35.018C14.8716 35.0931 14.9287 35.1563 14.9996 35.2005C15.0705 35.2447 15.1525 35.268 15.2361 35.2679H35.7662C36.1401 35.2679 36.3465 34.8382 36.1178 34.548L28.5006 24.8382C28.4582 24.7847 28.4044 24.7416 28.343 24.7119C28.2817 24.6822 28.2144 24.6668 28.1462 24.6668C28.078 24.6668 28.0108 24.6822 27.9494 24.7119C27.888 24.7416 27.8342 24.7847 27.7919 24.8382ZM17.0162 21.0938C17.0162 21.6858 17.2514 22.2535 17.67 22.6721C18.0886 23.0907 18.6563 23.3259 19.2483 23.3259C19.8403 23.3259 20.4081 23.0907 20.8267 22.6721C21.2453 22.2535 21.4805 21.6858 21.4805 21.0938C21.4805 20.5017 21.2453 19.934 20.8267 19.5154C20.4081 19.0968 19.8403 18.8616 19.2483 18.8616C18.6563 18.8616 18.0886 19.0968 17.67 19.5154C17.2514 19.934 17.0162 20.5017 17.0162 21.0938ZM44.6166 12.5335L32.6077 0.524554C32.2729 0.189732 31.8209 0 31.3465 0H7.64118C6.65346 0 5.85547 0.797991 5.85547 1.78571V48.2143C5.85547 49.202 6.65346 50 7.64118 50H43.3555C44.3432 50 45.1412 49.202 45.1412 48.2143V13.8002C45.1412 13.3259 44.9515 12.8683 44.6166 12.5335ZM41.0229 14.6205H30.5207V4.1183L41.0229 14.6205ZM41.1233 45.9821H9.87333V4.01786H26.726V16.0714C26.726 16.693 26.9729 17.2892 27.4125 17.7287C27.852 18.1682 28.4482 18.4152 29.0698 18.4152H41.1233V45.9821Z" fill="#A6A6A6"/>
</g>
<defs>
<clipPath id="clip0_6170_79760">
<rect width="50" height="50" fill="white" transform="translate(0.5)"/>
</clipPath>
</defs>
</svg>
